<svg width="53" height="53" viewBox="0 0 53 53" fill="none" xmlns="http://www.w3.org/2000/svg">
<path d="M26.24 48.4C27.3038 47.3501 28.1948 46.1384 28.88 44.81C29.04 44.5 29.19 44.21 29.33 43.89C29.9048 42.5246 30.2592 41.0765 30.38 39.6C30.38 39.21 30.44 38.82 30.44 38.43C30.4351 37.3728 30.311 36.3194 30.07 35.29C35.494 34.2843 40.6641 32.2108 45.28 29.19C45.4422 28.1981 45.5258 27.195 45.53 26.19C45.5305 25.6055 45.5004 25.0214 45.44 24.44C44.1853 25.475 42.8474 26.4048 41.44 27.22C37.4921 29.4564 33.1896 30.9988 28.72 31.78C28.52 31.78 28.34 31.87 28.13 31.9C26.97 32.1 25.87 32.34 24.82 32.59C20.2862 33.5265 15.9874 35.3664 12.18 38C11.238 38.6812 10.358 39.4442 9.54999 40.28C8.72742 41.1295 8.00288 42.0687 7.38999 43.08C7.33091 43.1503 7.28055 43.2276 7.24 43.31C6.53722 44.5445 6.00886 45.8705 5.66999 47.25C6.61248 48.4188 7.73684 49.4283 8.99999 50.24C11.2261 51.6579 13.8107 52.4108 16.45 52.41C20.1011 52.389 23.6024 50.9555 26.22 48.41M20.9 47.65H20.85C19.4718 48.3148 17.9602 48.6568 16.43 48.65C14.9954 48.6465 13.5778 48.3398 12.27 47.75C11.4217 47.3749 10.6279 46.8872 9.90999 46.3C9.90999 46.22 9.97999 46.15 10.01 46.08C10.2427 45.5755 10.51 45.0877 10.81 44.62C11.2131 44.0454 11.6612 43.5037 12.15 43L12.65 42.49C13.3407 41.8287 14.0831 41.2234 14.87 40.68C17.8877 38.6777 21.236 37.2253 24.76 36.39C25.29 36.25 25.84 36.12 26.41 35.99C26.496 36.3563 26.5627 36.7268 26.61 37.1C26.6735 37.5305 26.7069 37.9649 26.71 38.4C26.7038 39.3366 26.5726 40.2681 26.32 41.17C25.9448 42.4784 25.3124 43.6988 24.46 44.76C23.5057 45.9605 22.2966 46.934 20.92 47.61" fill="#76BC21"/>
<path d="M27.21 3.89C26.1189 4.94022 25.2039 6.15913 24.5 7.5C23.6287 9.14776 23.0981 10.9541 22.9401 12.8114C22.782 14.6686 22.9996 16.5387 23.58 18.31C22.74 18.51 21.87 18.7 20.96 18.86C16.5225 19.5632 12.2232 20.9603 8.22 23C8.06145 24.0423 7.98788 25.0958 7.99999 26.15C7.99999 26.54 7.99999 26.93 7.99999 27.31V27.47C9.57048 26.4379 11.2466 25.5763 13 24.9C15.7885 23.8182 18.6801 23.0241 21.63 22.53C22.9 22.3 24.11 22.04 25.27 21.75C26.62 21.41 27.89 21.03 29.09 20.62C33.4406 19.1812 37.4811 16.9353 41 14C41.8815 13.2412 42.7195 12.4332 43.51 11.58C44.2871 10.7307 45.0086 9.83221 45.67 8.89C45.73 8.8 45.79 8.71 45.84 8.62C46.5422 7.64601 47.1326 6.59607 47.6 5.49L47.67 5.12C46.3624 3.51627 44.7135 2.22447 42.8434 1.33874C40.9733 0.453005 38.9292 -0.00435115 36.86 2.43388e-07C33.2776 0.00845491 29.8347 1.3899 27.24 3.86M32.64 4.64C34.1633 3.94219 35.8361 3.63353 37.5082 3.74175C39.1803 3.84996 40.7993 4.37165 42.22 5.26C42.54 5.46 42.85 5.67 43.15 5.9C42.4909 6.96766 41.7344 7.97195 40.89 8.9C40.0973 9.76498 39.2452 10.5736 38.34 11.32C35.0524 14.0147 31.2772 16.0517 27.22 17.32C26.842 16.253 26.6394 15.1318 26.62 14C26.6289 11.6217 27.471 9.32173 29 7.5C29.9894 6.29108 31.241 5.32329 32.66 4.67" fill="#76BC21"/>
<path d="M52.47 22.45C52.47 22.17 52.39 21.88 52.34 21.6C52.0838 20.1605 51.7058 18.7454 51.21 17.37C51.05 16.91 50.88 16.45 50.69 16C50.5 15.55 50.2 14.92 49.93 14.39C49.2852 13.1084 48.5325 11.884 47.68 10.73C47.4658 11.2131 47.2185 11.6809 46.94 12.13C46.5117 12.8251 46.0408 13.493 45.53 14.13C42.0901 18.2953 37.5674 21.4304 32.46 23.19C30.9518 23.7568 29.4127 24.2376 27.85 24.63C26.8 24.89 25.71 25.12 24.55 25.33C23.8 25.46 23.09 25.61 22.39 25.76C19.3897 26.3793 16.4634 27.3146 13.66 28.55C12.2883 29.1606 10.9675 29.8795 9.70999 30.7C8.2962 31.6116 6.994 32.6856 5.83 33.9C5.43584 32.805 5.12495 31.6818 4.9 30.54C4.9 30.41 4.82999 30.28 4.79999 30.15C4.55829 28.8304 4.43779 27.4915 4.43999 26.15C4.43999 25.89 4.43999 25.64 4.43999 25.38C4.62152 20.2791 6.54588 15.3944 9.89229 11.5403C13.2387 7.68621 17.805 5.09549 22.83 4.2L23.57 4.09C24.1146 3.37854 24.7131 2.70991 25.36 2.09C26.0932 1.37692 26.8861 0.727886 27.73 0.15C27.4 0.15 27.08 0.15 26.73 0.15C25.1977 0.153828 23.6685 0.291013 22.16 0.56C15.6561 1.71571 9.83588 5.30372 5.8816 10.5953C1.92733 15.8868 0.135479 22.4851 0.869996 29.05C0.939996 29.6 1.01 30.14 1.11 30.69C1.33733 32.0476 1.6717 33.3851 2.11 34.69C2.28 35.17 2.45999 35.69 2.64999 36.12C2.83999 36.55 3.03999 37.03 3.24999 37.47C3.87471 38.7554 4.60032 39.9893 5.41999 41.16L5.70999 41.56C5.84516 40.9635 6.036 40.3809 6.27999 39.82C6.62703 39.0452 7.06332 38.3136 7.58 37.64C9.52 35.1 13.58 31.79 21.84 29.76C22.84 29.5 23.99 29.26 25.18 29.05L26.52 28.79C28.4967 28.3898 30.447 27.8689 32.36 27.23C35.0624 26.3428 37.6583 25.1589 40.1 23.7C41.8809 22.6329 43.5553 21.3972 45.1 20.01C45.8831 19.304 46.6275 18.5563 47.33 17.77C47.8099 18.9523 48.188 20.1734 48.46 21.42C48.4553 21.4532 48.4553 21.4868 48.46 21.52V21.66C48.7621 23.1409 48.9129 24.6486 48.91 26.16V26.28C48.8801 30.7251 47.5241 35.0602 45.0158 38.7301C42.5074 42.4 38.9608 45.2378 34.83 46.88C33.7005 47.3422 32.537 47.7166 31.35 48C31.1 48 30.86 48.1 30.61 48.15L29.85 48.26C29.3386 48.9718 28.7701 49.6407 28.15 50.26L27.99 50.42C27.2954 51.079 26.546 51.6779 25.75 52.21H26.69C28.2254 52.2096 29.7578 52.0758 31.27 51.81L31.7 51.72C32.9757 51.4775 34.2323 51.1433 35.46 50.72C41.113 48.7039 45.8945 44.7942 48.9931 39.6541C52.0917 34.5141 53.3166 28.4603 52.46 22.52" fill="#76BC21"/>
</svg>
