<svg xmlns="http://www.w3.org/2000/svg" viewBox="0 0 111.44 119.21"><defs><style>.cls-1{fill:#fff;}.cls-2{fill:#fff;}</style></defs><g id="Capa_2" data-name="Capa 2"><g id="Capa_1-2" data-name="Capa 1"><polygon class="cls-1" points="14.83 111.64 16.55 111.64 16.55 117.68 20.28 117.68 20.28 119.08 14.83 119.08 14.83 111.64"/><rect class="cls-1" x="21.64" y="111.64" width="1.73" height="7.44"/><path class="cls-1" d="M25.05,115.36a3.84,3.84,0,0,1,4.07-3.84,3.85,3.85,0,1,1,0,7.69,3.85,3.85,0,0,1-4.07-3.85m6.4,0a2.33,2.33,0,1,0-2.33,2.38,2.27,2.27,0,0,0,2.33-2.38"/><polygon class="cls-1" points="36.6 113.02 36.6 114.99 40.04 114.99 40.04 116.37 36.6 116.37 36.6 119.08 34.88 119.08 34.88 111.64 40.5 111.64 40.5 113.02 36.6 113.02"/><rect class="cls-1" x="42.06" y="111.64" width="1.72" height="7.44"/><polygon class="cls-1" points="45.94 111.64 47.66 111.64 47.66 117.68 51.39 117.68 51.39 119.08 45.94 119.08 45.94 111.64"/><rect class="cls-1" x="52.75" y="111.64" width="1.72" height="7.44"/><polygon class="cls-1" points="62.65 117.68 62.65 119.08 56.15 119.08 56.15 117.96 60.23 113.05 56.24 113.05 56.24 111.64 62.49 111.64 62.49 112.76 58.42 117.68 62.65 117.68"/><path class="cls-1" d="M69.05,117.49H65.59l-.65,1.59H63.18l3.31-7.44h1.7l3.33,7.44H69.71Zm-.54-1.32-1.18-2.84-1.18,2.84Z"/><path class="cls-1" d="M72.69,111.64h3.37c2.44,0,4.11,1.47,4.11,3.72s-1.67,3.72-4.11,3.72H72.69Zm3.29,6a2.31,2.31,0,1,0,0-4.61H74.41v4.61Z"/><path class="cls-1" d="M81.39,115.36a4.08,4.08,0,1,1,4.06,3.85,3.84,3.84,0,0,1-4.06-3.85m6.39,0a2.33,2.33,0,1,0-2.33,2.38,2.27,2.27,0,0,0,2.33-2.38"/><path class="cls-1" d="M90.63,118.35l.59-1.3a4.32,4.32,0,0,0,2.45.77c1,0,1.44-.33,1.44-.79,0-1.39-4.33-.44-4.33-3.2,0-1.26,1-2.31,3.13-2.31a5.08,5.08,0,0,1,2.59.65L96,113.48a4.2,4.2,0,0,0-2.06-.59c-1,0-1.41.39-1.41.85,0,1.38,4.33.43,4.33,3.16,0,1.24-1,2.31-3.16,2.31a5.39,5.39,0,0,1-3-.86"/><path class="cls-1" d="M37.61,84.55a9.58,9.58,0,0,0,1-4.49V76a8.74,8.74,0,0,0-2.38-6.41,8.57,8.57,0,0,0-6.39-2.4H21.09v36.95h5.6V72.46h2.9A3.12,3.12,0,0,1,33,75.89v4.27a3.13,3.13,0,0,1-3.44,3.44H28.18l2.3,8.62,3.18,11.91h5.8l-4.7-16.52a7.51,7.51,0,0,0,2.85-3.06"/><rect class="cls-1" x="44.4" y="67.18" width="5.59" height="36.96"/><polygon class="cls-1" points="70.59 67.18 65.69 78.4 60.8 67.18 54.47 67.18 62.53 85.65 54.47 104.13 60.8 104.13 65.69 92.91 70.59 104.13 76.92 104.13 68.86 85.65 76.92 67.18 70.59 67.18"/><rect class="cls-1" x="82.43" y="67.18" width="5.6" height="36.96"/><path class="cls-1" d="M109,69.1a9.82,9.82,0,0,0-13,0,8.71,8.71,0,0,0-2.48,6.47V87.83A8.71,8.71,0,0,0,96,94.3a9.82,9.82,0,0,0,13,0,8.68,8.68,0,0,0,2.49-6.47V75.57A8.68,8.68,0,0,0,109,69.1m-3.11,18.73a3.74,3.74,0,0,1-.9,2.69,3.68,3.68,0,0,1-5,0,3.73,3.73,0,0,1-.89-2.69V75.57a3.75,3.75,0,0,1,.89-2.69,3.71,3.71,0,0,1,5,0,3.75,3.75,0,0,1,.9,2.69Z"/><rect class="cls-1" x="93.49" y="98.85" width="17.95" height="5.28"/><polygon class="cls-1" points="0 104.13 5.59 104.13 5.59 91.23 5.59 89.33 13.52 89.33 13.52 84.06 5.59 84.06 5.59 83.28 5.59 81.63 5.59 72.46 15.63 72.46 15.63 67.18 0 67.18 0 104.13"/><path class="cls-2" d="M55.24,48.4a14.17,14.17,0,0,0,2.64-3.59c.16-.31.31-.6.45-.92a14,14,0,0,0,1.05-4.29c0-.39.06-.78.06-1.17a14.06,14.06,0,0,0-.37-3.14,41.64,41.64,0,0,0,15.21-6.1,19.09,19.09,0,0,0,.25-3,16.8,16.8,0,0,0-.09-1.75,29.61,29.61,0,0,1-4,2.78,39.66,39.66,0,0,1-12.72,4.56c-.2,0-.38.09-.59.12-1.16.2-2.26.44-3.31.69A34.48,34.48,0,0,0,41.18,38a19.78,19.78,0,0,0-2.63,2.28l0,0a15.79,15.79,0,0,0-2.16,2.8,1.14,1.14,0,0,0-.15.23l0,0a15.38,15.38,0,0,0-1.57,3.94A14,14,0,0,0,38,50.24a13.86,13.86,0,0,0,7.45,2.17,14.13,14.13,0,0,0,9.77-4l0,0m-5.32-.76-.05,0a10.07,10.07,0,0,1-4.42,1,10.18,10.18,0,0,1-4.16-.9,10.32,10.32,0,0,1-2.36-1.45c0-.08.07-.15.1-.22a12.07,12.07,0,0,1,.8-1.46A13.28,13.28,0,0,1,41.15,43l.5-.51a18,18,0,0,1,2.22-1.81,30.69,30.69,0,0,1,9.89-4.29c.53-.14,1.08-.27,1.65-.4a10.78,10.78,0,0,1,.2,1.11,9.36,9.36,0,0,1,.1,1.3,10.53,10.53,0,0,1-.39,2.77,10.24,10.24,0,0,1-1.86,3.59,10.35,10.35,0,0,1-3.54,2.85"/><path class="cls-2" d="M56.21,3.89A14.12,14.12,0,0,0,53.5,7.5a13.88,13.88,0,0,0-.92,10.81c-.84.2-1.71.39-2.62.55A42.83,42.83,0,0,0,37.22,23,19.46,19.46,0,0,0,37,26.15c0,.39,0,.78,0,1.16h0l0,.16a26.41,26.41,0,0,1,5-2.57,43.92,43.92,0,0,1,8.63-2.37c1.27-.23,2.48-.49,3.64-.78,1.35-.34,2.62-.72,3.82-1.13A36.47,36.47,0,0,0,70,14a30.94,30.94,0,0,0,2.51-2.42l0,0a26.75,26.75,0,0,0,2.16-2.69c.06-.09.12-.18.17-.27A16,16,0,0,0,76.6,5.49l.07-.37A13.91,13.91,0,0,0,65.86,0a14,14,0,0,0-9.62,3.86l0,0m5.4.78,0,0a10.12,10.12,0,0,1,9.58.62c.32.2.63.41.93.64a.1.1,0,0,1,0,0,20.31,20.31,0,0,1-2.26,3l0,0a25.23,25.23,0,0,1-2.55,2.42,33.14,33.14,0,0,1-11.12,6A10.48,10.48,0,0,1,55.62,14,10.17,10.17,0,0,1,58,7.5a10.29,10.29,0,0,1,3.66-2.83"/><path class="cls-2" d="M81.47,22.45c0-.28-.08-.57-.13-.85a25.81,25.81,0,0,0-1.13-4.23c-.16-.46-.33-.92-.52-1.37s-.49-1.08-.76-1.61a25.29,25.29,0,0,0-2.25-3.66,11.51,11.51,0,0,1-.74,1.4,19.8,19.8,0,0,1-1.41,2,29.35,29.35,0,0,1-13.07,9.06,42.59,42.59,0,0,1-4.61,1.44c-1.05.26-2.14.49-3.3.7-.75.13-1.46.28-2.16.43a43.41,43.41,0,0,0-8.73,2.79,28.26,28.26,0,0,0-3.95,2.15,21.55,21.55,0,0,0-3.88,3.2,23.11,23.11,0,0,1-.93-3.36c0-.13-.07-.26-.1-.39l0,0a22,22,0,0,1-.36-4c0-.26,0-.51,0-.77,0,0,0,0,0,0A22.32,22.32,0,0,1,51.83,4.2l.74-.11a17.52,17.52,0,0,1,1.79-2l0,0A17.93,17.93,0,0,1,56.73.15c-.33,0-.65,0-1,0a26.41,26.41,0,0,0-4.57.41A26,26,0,0,0,29.87,29.05c.07.55.14,1.09.24,1.64a26.1,26.1,0,0,0,1,4c.17.48.35,1,.54,1.43s.39.91.6,1.35a27.05,27.05,0,0,0,2.17,3.69l.29.4a9.78,9.78,0,0,1,.57-1.74,10.91,10.91,0,0,1,1.3-2.18c1.94-2.54,6-5.85,14.26-7.88,1-.26,2.15-.5,3.34-.71l1.34-.26a49.34,49.34,0,0,0,5.84-1.56A38.51,38.51,0,0,0,69.1,23.7a32.43,32.43,0,0,0,5-3.69,29.29,29.29,0,0,0,2.23-2.24,22.4,22.4,0,0,1,1.13,3.65h0a.36.36,0,0,0,0,.1l0,.14h0a22.3,22.3,0,0,1,.45,4.5v.12a22.33,22.33,0,0,1-14.08,20.6A23.76,23.76,0,0,1,60.35,48c-.25,0-.49.1-.74.15l-.76.11a16.12,16.12,0,0,1-1.7,2l-.16.16a16.9,16.9,0,0,1-2.24,1.79l.94,0a26.5,26.5,0,0,0,4.58-.4l.43-.09a27,27,0,0,0,3.76-1,26,26,0,0,0,17-28.2"/></g></g></svg>