<svg xmlns="http://www.w3.org/2000/svg" viewBox="0 0 101.05 63.84"><defs><style>.cls-1{fill:#fff;}</style></defs><title>Recurso 71radios unidos</title><g id="Capa_2" data-name="Capa 2"><g id="Capa_1-2" data-name="Capa 1"><path class="cls-1" d="M32.58,5.74c-.08.06-.11.11-.07.19l.81,1.37c0,.08.1.07.19,0s.11-.11.06-.19l-.81-1.37c0-.09-.1-.07-.18,0"/><path class="cls-1" d="M37.13,4.61l0,.12c.11.27.36.31.76.12l.58-.28c.4-.2.55-.43.44-.7l-.21-.51c-.11-.27-.37-.31-.76-.11l-.21.1c-.07,0-.06.08,0,.15s.06.11.12.08l.2-.09c.24-.12.37-.11.4,0h0l-.91.44c-.4.19-.54.43-.43.7m1.43-.91.13.3c0,.09,0,.22-.27.34l-.57.27c-.23.11-.37.09-.4,0l-.06-.13c0-.1,0-.22.27-.34Z"/><path class="cls-1" d="M39.36,3.2l.17.52c.09.28.35.33.76.17l.52-.2c.42-.16.58-.38.49-.66L40.9,1.8c0-.09-.08-.09-.17-.06s-.14.08-.11.17l.09.28-.86.34c-.42.17-.58.38-.49.67m1.43-.76.23.7c0,.09-.05.21-.29.31l-.51.2c-.25.09-.38.06-.41,0l-.17-.52c0-.1,0-.22.3-.32Z"/><path class="cls-1" d="M36.23,4.11c0-.06-.1,0-.17,0s-.12.08-.14.12L35.16,6a.12.12,0,0,0,0,.13c0,.08.1.09.25,0l1.36-.79c.07,0,.06-.08,0-.16s-.07-.11-.13-.07l-1.13.66.68-1.55c0-.05,0-.08,0-.12"/><path class="cls-1" d="M42.66,3.13,43.15,3c.42-.13.59-.34.52-.63l-.13-.53q-.12-.44-.75-.24l-.48.15c-.43.13-.6.34-.53.62l.13.54c.08.28.33.36.75.23M42.38,2l.47-.15c.25-.07.38,0,.4.08l.14.53c0,.1-.07.21-.32.29l-.47.14c-.25.08-.38,0-.4-.07l-.14-.53c0-.1.07-.22.32-.29"/><path class="cls-1" d="M49.72,1.87,50,1.42l1.29,0,.29.43a.12.12,0,0,0,.1,0,.16.16,0,0,0,.17-.14.14.14,0,0,0,0-.06L50.72.1A.17.17,0,0,0,50.54,0a.2.2,0,0,0-.18.09l-.9,1.63s0,0,0,.06.09.13.17.13a.11.11,0,0,0,.1-.06M50.55.33l.52.77-1,0Z"/><path class="cls-1" d="M52.76,1.75l0-1.63c0-.09,0-.12-.14-.12s-.15,0-.15.12l0,1.63c0,.1,0,.12.15.12s.15,0,.15-.12"/><path class="cls-1" d="M33.74,5.65l.56,1c.05.08.1.08.18,0s.12-.1.07-.19l-.56-1c-.05-.08-.1-.08-.19,0s-.11.1-.06.19"/><path class="cls-1" d="M44.81,1.4l.18,0c.07,0,.07-.06.06-.14s0-.12-.11-.11l-.18,0c-.38.09-.56.29-.5.58l.17.87c0,.09.07.1.16.08s.14-.06.13-.15l-.17-.87c0-.12,0-.2.26-.25"/><path class="cls-1" d="M45.53,1.86l0,.13c0,.29.28.4.71.33l.63-.11c.43-.08.63-.26.58-.55l-.08-.55c0-.3-.28-.4-.71-.33l-.23,0c-.07,0-.08.06-.06.15s0,.12.1.11l.22,0c.25,0,.37,0,.39.09h0l-1,.18c-.43.07-.63.25-.58.55m1.6-.48,0,.33c0,.1-.08.2-.34.25l-.61.1c-.25,0-.38,0-.39-.12l0-.14c0-.11.08-.21.34-.25Z"/><path class="cls-1" d="M53.77,1.92c.1,0,.15,0,.15-.11L54,.6c0-.1,0-.12-.15-.13s-.14,0-.15.12l0,1.2c0,.1,0,.12.14.13"/><path class="cls-1" d="M56.84,31,48.63,42.26,40.45,31a1.81,1.81,0,0,0-1.53-.61c-1,0-1.83.4-1.83,1a1,1,0,0,0,.21.56L46.9,45a2.39,2.39,0,0,0,3.42,0L59.82,32a1.09,1.09,0,0,0,.21-.59c0-.59-.83-1-1.73-1a1.71,1.71,0,0,0-1.46.59"/><path class="cls-1" d="M35.72,27.76c0-1.15-.56-1.66-1.93-1.66s-1.93.51-1.93,1.66.56,1.66,1.93,1.66,1.93-.51,1.93-1.66"/><path class="cls-1" d="M83,21.87l1.74.34h0a.18.18,0,0,0,0-.23c0-.05,0-.08-.08-.08l-1.62-.31L84,20a.15.15,0,0,0,0-.13c0-.08-.13-.15-.19-.12s0,0,0,0l-.88,1.69a.21.21,0,0,0,0,.22c0,.09.08.13.15.14"/><path class="cls-1" d="M82.45,18c.09-.05.22,0,.35.28l.55,1.08c0,.08.09.07.16,0s.1-.08.06-.15L83,18.17c-.23-.44-.47-.59-.72-.43l-.71.44c-.26.15-.27.45,0,.89l.56,1.1c0,.07.08.06.15,0s.1-.08.06-.15l-.55-1.09c-.13-.26-.12-.41,0-.47Z"/><path class="cls-1" d="M32.25,31.84V44.49c0,1,.51,1.26,1.54,1.26s1.56-.24,1.56-1.26V31.84c0-1-.51-1.26-1.56-1.26s-1.54.24-1.54,1.26"/><path class="cls-1" d="M29.66,8.55l.69.94c.06.07.11.06.18,0s.11-.12,0-.2l-.69-.93c-.06-.08-.11-.06-.19,0s-.1.12,0,.19"/><path class="cls-1" d="M27.19,10.91c0-.05,0-.09,0-.15s-.09-.08-.14,0l-.13.14c-.27.31-.32.58-.13.78l.58.63c.06.06.11,0,.18,0s.09-.13,0-.2L27,11.42c-.08-.08-.07-.19.09-.37Z"/><path class="cls-1" d="M33.6,5.09c-.11.08-.13.15-.08.24s.12.11.23,0,.14-.15.09-.24-.12-.11-.24,0"/><path class="cls-1" d="M30.89,8.47l.07.11c.16.24.42.21.77-.07l.51-.41q.52-.42.3-.78l-.3-.45c-.16-.24-.42-.22-.77.07l-.19.14c-.05,0,0,.09,0,.16s.08.1.14,0l.18-.14C31.81,7,31.93,7,32,7h0l-.8.64c-.35.29-.45.55-.29.79m.43-.59.8-.64.18.27c.05.08,0,.22-.2.39l-.5.4c-.21.17-.35.17-.4.09l-.08-.12c-.06-.09,0-.22.2-.39"/><path class="cls-1" d="M29.46,8c-.1.09-.12.16-.05.25s.13.08.23,0,.11-.16.05-.25-.13-.08-.23,0"/><path class="cls-1" d="M29.07,9.09c.05-.05,0-.1,0-.16s-.1-.08-.15,0l-.86.86c-.32.32-.4.59-.22.81l.34.41c.18.22.44.17.76-.16L29.8,10c.05-.05,0-.09,0-.16s-.09-.08-.14,0l-.86.86c-.19.19-.33.21-.39.13l-.34-.41c-.06-.08,0-.22.17-.41Z"/><path class="cls-1" d="M24.64,13.87c-.22-.17-.46-.07-.68.27l-.14.2a.9.9,0,0,0-.17.46.8.8,0,0,0-.35.31l-.13.21c-.23.33-.25.61,0,.79l.65.53c.07.05.11,0,.17-.06s.07-.15,0-.2l-.65-.53c-.07-.07-.08-.2.08-.43l.07-.11c.16-.23.26-.25.34-.19l.65.53c.07,0,.11,0,.18-.06s.07-.14,0-.2L24,14.86c-.08-.06-.09-.18.06-.41l.08-.11c.15-.23.27-.27.34-.21l.66.53c.07.06.11,0,.17-.06s.07-.14,0-.2Z"/><path class="cls-1" d="M23,18.11l.26-.47c.23-.41.24-.7,0-.85l-.43-.29c-.23-.16-.46,0-.69.38l-.27.47c-.23.41-.24.69,0,.85l.42.29c.23.16.47,0,.7-.38m-1-.19c-.08-.05-.08-.2.05-.44L22.3,17c.14-.24.26-.3.34-.25l.43.29c.08.06.09.21-.05.45l-.26.46c-.14.24-.26.3-.34.25Z"/><path class="cls-1" d="M29.66,44.49V27.36c0-1-.51-1.26-1.56-1.26s-1.54.24-1.54,1.26V44.49c0,1,.52,1.26,1.54,1.26s1.56-.24,1.56-1.26"/><path class="cls-1" d="M26.27,12c-.21-.2-.43-.13-.74.25l-.35.45c-.29.36-.34.64-.13.84l.38.36c.2.19.45.11.74-.25l.18-.23c0-.06,0-.1,0-.16s-.09-.07-.14,0l-.17.22c-.18.21-.31.25-.38.18l-.09-.08.94-1.18c.08-.1.07-.13,0-.2Zm-.91,1.4-.12-.11c-.07-.07,0-.21.12-.43l.34-.43c.17-.22.29-.26.37-.19l.12.12Z"/><path class="cls-1" d="M14,27.06a2.06,2.06,0,0,0-1.9-.94,2.06,2.06,0,0,0-1.93.94L.17,43.74a1.22,1.22,0,0,0-.17.59c0,.83,1,1.45,1.76,1.45a1.17,1.17,0,0,0,1.05-.54l2.71-4.61H19.09L22,45.24a1.22,1.22,0,0,0,1.08.54c.83,0,1.78-.62,1.78-1.42a1.26,1.26,0,0,0-.17-.62ZM7.2,37.73l4.91-8.33,5.17,8.33Z"/><path class="cls-1" d="M72.39,36.61H67c-1.95,0-2.83-.54-2.83-1.37v-.7c0-.83.88-1.34,2.71-1.34h3.37c.73,0,.9-.45.9-1.34s-.17-1.37-.9-1.37H66.9c-3.81,0-5.82,1.53-5.82,4v.77c0,2.47,2,4,5.94,4h5.47c2.51,0,3.22.54,3.22,1.37v1c0,.84-.71,1.35-3.32,1.35H62c-.74,0-.91.45-.91,1.34s.17,1.36.91,1.36h9.88c4.91,0,6.91-1.53,6.91-4.1v-.86c0-2.57-1.88-4.07-6.44-4.07"/><path class="cls-1" d="M94.14,30.49H91.75c-.73,0-.9.46-.9,1.37s.17,1.34.9,1.34H94c2.74,0,3.91.65,3.91,1.66v0H87.5c-4.59,0-6.91,1.53-6.91,4.67V41c0,3.11,2.32,4.66,6.91,4.66h6.64c4.59,0,6.91-1.55,6.91-4.66V35.16c0-3.14-2.32-4.67-6.91-4.67M98,41c0,1.07-1.17,2-3.91,2H87.6c-2.74,0-3.91-.89-3.91-2V39.45c0-1.1,1.17-2,3.91-2H98Z"/><path class="cls-1" d="M79.6,15.64c-.16-.24-.16-.4-.08-.46l.22-.18.89,1.34c0,.07.08.06.15,0s.09-.09,0-.16l-.89-1.34.24-.19c.09-.07.22,0,.38.23l.2.3c0,.06.08.05.15,0s.09-.1,0-.16l-.2-.31c-.27-.41-.52-.52-.76-.33l-.66.53c-.23.18-.21.48,0,.89l.66,1c0,.07.09.05.16,0s.09-.09,0-.16Z"/><path class="cls-1" d="M79.48,13.12,78.63,12c0-.06-.09-.06-.15,0l-1.12,1a.1.1,0,0,0,0,.16l.85,1.11c.29.38.55.47.77.27L79.6,14c.22-.21.18-.5-.12-.89m-.08.63-.62.58c-.08.07-.22,0-.4-.2l-.71-.92.9-.84.72.93c.17.22.19.38.11.45"/><path class="cls-1" d="M68.1,6c.41.23.67.21.81-.07l.38-.8c.13-.28,0-.54-.41-.77l-1.16-.67c-.07,0-.11,0-.15.05l-.68,1.42c0,.07,0,.13,0,.16Zm-.32-2,1,.57c.24.14.31.28.26.38l-.38.79c0,.1-.19.12-.43,0l-1-.57Z"/><path class="cls-1" d="M64.89,3.94c0,.1-.16.15-.42,0L63.4,3.53c-.07,0-.1,0-.13.09s0,.14,0,.16l1.07.45c.43.18.69.13.8-.17l0-.12c.1-.29-.06-.53-.49-.71L64.22,3c-.26-.11-.33-.23-.29-.33l0-.1c0-.1.16-.14.42,0l.22.1c.07,0,.1,0,.13-.09s0-.14,0-.17l-.22-.09c-.43-.18-.69-.13-.79.17l0,.1c-.1.29.06.53.49.71l.51.22c.26.1.33.23.29.33Z"/><path class="cls-1" d="M60.34,1.85c-.43-.12-.67,0-.74.25l0,.13c-.07.29.11.49.54.61l.61.17c.42.12.67,0,.73-.25l.13-.54c.07-.29-.11-.49-.54-.61l-.22-.06c-.07,0-.09,0-.11.1s0,.13,0,.15l.22.06c.25.07.34.16.32.26h0Zm.83.83c0,.1-.15.15-.4.08l-.6-.17c-.25-.07-.34-.18-.32-.28l0-.14c0-.1.15-.15.4-.08l1,.27Z"/><path class="cls-1" d="M53.84.36c.13,0,.18,0,.19-.14S54,.05,53.85.05s-.18,0-.19.15.05.16.18.16"/><path class="cls-1" d="M55.66,2.07a.19.19,0,0,0,.17,0l1-1.13a.14.14,0,0,0,0-.06s-.07-.1-.15-.11a.17.17,0,0,0-.15,0l-.87,1L55,.58A.17.17,0,0,0,54.89.5c-.1,0-.18,0-.19.08a.14.14,0,0,0,0,.06L55.51,2a.17.17,0,0,0,.15.09"/><path class="cls-1" d="M58.33,2.2l-1-.19c-.07,0-.09,0-.1.11s0,.13.06.14l.93.18c.46.1.67,0,.71-.25V2.11c0-.24-.11-.42-.54-.5l-.51-.1q-.27-.06-.24-.18V1.26c0-.08.1-.11.27-.07l.32.06c.07,0,.09,0,.1-.11s0-.13-.06-.15L58,.93c-.36-.07-.57,0-.61.27v.08c0,.23.12.4.49.48l.52.1c.23,0,.29.11.28.18l0,.1c0,.07-.08.11-.33.06"/><path class="cls-1" d="M73.91,9.06l.07.06c.33.29.63.34.77.15L74.93,9c.15-.2,0-.5-.29-.79l-1-.9c-.06,0-.11,0-.15,0l-.93,1.26c-.06.08,0,.13,0,.2s.13.09.19,0l.32-.43.69,1.43a.52.52,0,0,0,.12.16c.08.07.14.08.19,0s0-.08,0-.14l-.29-.58c-.19-.36-.25-.46-.31-.56h0c.09.09.17.17.39.36m-.64-.91.35-.47.84.74c.24.22.27.34.22.41L74.52,9c0,.07-.16.07-.41-.15Z"/><path class="cls-1" d="M75.21,10.71c-.2-.21-.23-.36-.16-.44l.79-.92c.06-.07,0-.13,0-.21s-.13-.09-.19,0l-.78.92c-.2.23-.13.52.2.86l.84.86c.06.06.1,0,.15,0s.08-.11,0-.17Z"/><path class="cls-1" d="M21,18.38c0-.07,0-.11-.07-.15s-.12-.05-.15,0l-.53,1.11c-.21.45-.2.74.06.89l.73.42c.25.15.49,0,.7-.45l.53-1.11c0-.07,0-.1-.07-.15s-.12-.05-.15,0l-.53,1.1c-.12.26-.25.33-.34.28L20.47,20c-.09-.05-.1-.2,0-.47Z"/><path class="cls-1" d="M70.55,5.58l.28.19c.07.05.1,0,.15-.06s0-.13,0-.17l-.29-.2c-.39-.27-.66-.27-.82,0l-.43.76c-.16.27,0,.54.35.81l1,.65c.06,0,.1,0,.14-.07s0-.12,0-.16l-.94-.65c-.23-.16-.29-.31-.23-.4L69.83,6l1.28.88c.06,0,.1,0,.14-.07s0-.12,0-.17L70,5.79l.16-.27c.06-.1.2-.1.43.06"/><path class="cls-1" d="M68.13,20.13a19.91,19.91,0,0,1,10.26,6A28.07,28.07,0,0,0,67.87,12.53a28.94,28.94,0,0,0-14.44-4.7,27.87,27.87,0,0,0-8.49.72c-7.47,1.9-13.56,7.06-17.74,13.75A5.5,5.5,0,0,1,29.48,21a5.4,5.4,0,0,1,3.8,0A30.79,30.79,0,0,1,38,17.42a28.3,28.3,0,0,1,14.44-3.89,28.32,28.32,0,0,0-4.81,1.26A31.06,31.06,0,0,0,37,21.4c.76.27,1.39.54,2.15.81,1.14.37,2,.82,3.17,1.09a15,15,0,0,0,3,.36,17.57,17.57,0,0,0,6-.72c1.27-.36,2.54-.64,3.81-1,5.44-1.63,11-2.17,13-1.81M46.46,17.24a32,32,0,0,0-6.08,3.62,20.86,20.86,0,0,1,4.56-3.44A19.5,19.5,0,0,1,53.43,15a32.45,32.45,0,0,0-7,2.27m2-7a27.74,27.74,0,0,0-13.81,6.51A23.49,23.49,0,0,1,45.45,9.91a24.53,24.53,0,0,1,20,3.16,27.53,27.53,0,0,0-17-2.8"/><path class="cls-1" d="M61.58,59A32.74,32.74,0,0,0,28.71,49.9c-.35.1-.9.73-.85.82.51.9.89,1.9,2.19,2a33.51,33.51,0,0,1,21,10.15c1.08,1.09,4.35,1.3,5.87.26A34.74,34.74,0,0,0,36.25,51a27.34,27.34,0,0,1,8.86,1.51,33.64,33.64,0,0,1,14.43,9.35c.49.53.93,1,1.76.69A27.87,27.87,0,0,0,72.16,56a3.72,3.72,0,0,0,.46-.64,24,24,0,0,0-10.46,4.38,5,5,0,0,0-.58-.8"/><path class="cls-1" d="M55.63,51.92a12,12,0,0,1,1.21,1.14c1,1.2,2.13,1.27,3.65.72,2.26-.81,4.65-1.24,7-1.84,0,.16.07.32.1.47-.37.14-.75.26-1.12.42-1.89.8-3.79,1.61-5.67,2.46a1.09,1.09,0,0,0-.6.76,1.75,1.75,0,0,0,2.24,1.29A28.9,28.9,0,0,1,72,54.71c2-.17,2.78-1.65,3.87-2.91-3.4-2.44-17.19-2.35-20.24.12"/><path class="cls-1" d="M30.29,53.36c1.3,3.94,12.49,10.36,17.48,9.92a32.82,32.82,0,0,0-17.48-9.92"/><path class="cls-1" d="M36.21,4.07c0-.08-.07-.11-.13-.07l-1.14.66-.37.21h0a.17.17,0,0,0,0,.14c0,.08.11.08.25,0l1.37-.8c.06,0,.05-.08,0-.15"/></g></g></svg>